<svg width="20" height="21" viewBox="0 0 20 21" fill="none" xmlns="http://www.w3.org/2000/svg">
<path d="M17.5 19.0064H2.5C2.15833 19.0064 1.875 18.7231 1.875 18.3814C1.875 18.0398 2.15833 17.7564 2.5 17.7564H17.5C17.8417 17.7564 18.125 18.0398 18.125 18.3814C18.125 18.7231 17.8417 19.0064 17.5 19.0064Z" fill="#554766"/>
<path d="M15.8495 3.5731C14.2328 1.95643 12.6495 1.91477 10.9912 3.5731L9.98283 4.58143C9.89949 4.66477 9.86616 4.7981 9.89949 4.91477C10.5328 7.1231 12.2995 8.88977 14.5078 9.5231C14.5412 9.53143 14.5745 9.53977 14.6078 9.53977C14.6995 9.53977 14.7828 9.50643 14.8495 9.43977L15.8495 8.43143C16.6745 7.61477 17.0745 6.8231 17.0745 6.0231C17.0828 5.1981 16.6828 4.3981 15.8495 3.5731Z" fill="#554766"/>
<path d="M13.007 10.2814C12.7653 10.1648 12.532 10.0481 12.307 9.91477C12.1236 9.80643 11.9486 9.68977 11.7736 9.56477C11.632 9.4731 11.4653 9.33977 11.307 9.20643C11.2903 9.1981 11.232 9.1481 11.1653 9.08143C10.8903 8.8481 10.582 8.5481 10.307 8.21477C10.282 8.1981 10.2403 8.13977 10.182 8.06477C10.0986 7.96477 9.95697 7.7981 9.83197 7.60643C9.73197 7.48143 9.6153 7.2981 9.50697 7.11477C9.37364 6.88977 9.25697 6.66477 9.1403 6.43143C8.98734 6.10365 8.55713 6.00628 8.30135 6.26205L3.6153 10.9481C3.50697 11.0564 3.40697 11.2648 3.38197 11.4064L2.93197 14.5981C2.84864 15.1648 3.00697 15.6981 3.35697 16.0564C3.65697 16.3481 4.07364 16.5064 4.52364 16.5064C4.62364 16.5064 4.72364 16.4981 4.82364 16.4814L8.02364 16.0314C8.17364 16.0064 8.38197 15.9064 8.48197 15.7981L13.1758 11.1043C13.4264 10.8537 13.3322 10.4224 13.007 10.2814Z" fill="#554766"/>
</svg>
