<svg width="16" height="17" viewBox="0 0 16 17" fill="none" xmlns="http://www.w3.org/2000/svg">
<path d="M6.13234 10.5264L7.85234 12.0331C7.93234 12.1064 8.059 12.1064 8.139 12.0331L9.859 10.5264C10.3057 10.1331 10.3657 9.46641 9.99234 8.99975C9.619 8.53308 8.939 8.44641 8.46567 8.80641L7.999 9.16641L7.52567 8.81308C7.04567 8.45308 6.37234 8.53975 5.999 9.00641C5.62567 9.46641 5.68567 10.1397 6.13234 10.5264Z" stroke="#554766" stroke-linecap="round" stroke-linejoin="round"/>
<path d="M14.6654 8.00635V12.0063C14.6654 14.673 13.9987 15.3397 11.332 15.3397H4.66536C1.9987 15.3397 1.33203 14.673 1.33203 12.0063V5.33968C1.33203 2.67301 1.9987 2.00635 4.66536 2.00635H5.66536C6.66536 2.00635 6.88536 2.29968 7.26536 2.80635L8.26536 4.13968C8.5187 4.47301 8.66536 4.67301 9.33203 4.67301H11.332C13.9987 4.67301 14.6654 5.33968 14.6654 8.00635Z" stroke="#554766" stroke-miterlimit="10"/>
</svg>
